<svg width="248" height="44" viewBox="0 0 248 44" fill="none" xmlns="http://www.w3.org/2000/svg">
<path d="M62.0455 35.3835C67.2741 35.3835 70.5597 32.3153 70.8153 27.8026H65.6761C65.3565 29.8991 63.9759 31.0753 62.1094 31.0753C59.5653 31.0753 57.9162 28.9403 57.9162 25.1818C57.9162 21.4744 59.5781 19.3523 62.1094 19.3523C64.1037 19.3523 65.3821 20.669 65.6761 22.625H70.8153C70.5852 18.0866 67.1463 15.108 62.0199 15.108C56.0625 15.108 52.3807 19.2372 52.3807 25.2585C52.3807 31.2287 55.9986 35.3835 62.0455 35.3835ZM83.1744 35.3835C89.1317 35.3835 92.8391 31.3054 92.8391 25.2585C92.8391 19.1733 89.1317 15.108 83.1744 15.108C77.217 15.108 73.5096 19.1733 73.5096 25.2585C73.5096 31.3054 77.217 35.3835 83.1744 35.3835ZM83.1999 31.1648C80.4513 31.1648 79.0451 28.6463 79.0451 25.2202C79.0451 21.794 80.4513 19.2628 83.1999 19.2628C85.8974 19.2628 87.3036 21.794 87.3036 25.2202C87.3036 28.6463 85.8974 31.1648 83.1999 31.1648ZM103.616 35.3196C106.787 35.3196 108.436 33.4915 109.19 31.8551H109.42V35H114.789V8.81818H109.356V18.6619H109.19C108.461 17.0639 106.889 15.108 103.603 15.108C99.2951 15.108 95.6516 18.4574 95.6516 25.2074C95.6516 31.7784 99.1417 35.3196 103.616 35.3196ZM105.342 30.9858C102.67 30.9858 101.213 28.608 101.213 25.1818C101.213 21.7812 102.645 19.4418 105.342 19.4418C107.988 19.4418 109.471 21.679 109.471 25.1818C109.471 28.6847 107.963 30.9858 105.342 30.9858ZM128.216 35.3835C133.074 35.3835 136.347 33.0185 137.114 29.375L132.077 29.0426C131.527 30.5384 130.121 31.3182 128.305 31.3182C125.582 31.3182 123.857 29.5156 123.857 26.5881V26.5753H137.229V25.0795C137.229 18.4062 133.189 15.108 127.999 15.108C122.22 15.108 118.474 19.2116 118.474 25.2713C118.474 31.4972 122.169 35.3835 128.216 35.3835ZM123.857 23.2003C123.972 20.9631 125.672 19.1733 128.088 19.1733C130.453 19.1733 132.089 20.8608 132.102 23.2003H123.857ZM144.516 35H150.268L153.643 22.6506H153.886L157.261 35H163.027L168.358 15.3636H162.861L159.869 28.4801H159.703L156.482 15.3636H151.074L147.903 28.5568H147.724L144.682 15.3636H139.172L144.516 35ZM176.709 23.6477C176.722 21.1165 178.269 19.6335 180.493 19.6335C182.705 19.6335 184.009 21.0526 183.996 23.4688V35H189.442V22.4972C189.455 17.8949 186.745 15.108 182.654 15.108C179.675 15.108 177.681 16.5142 176.786 18.8281H176.556V8.81818H171.263V35H176.709V23.6477ZM199.327 35.3707C202.229 35.3707 204.109 34.1051 205.067 32.277H205.221V35H210.386V21.7557C210.386 17.0767 206.423 15.108 202.05 15.108C197.346 15.108 194.252 17.358 193.498 20.9375L198.535 21.3466C198.906 20.0426 200.069 19.0838 202.025 19.0838C203.879 19.0838 204.94 20.017 204.94 21.6278V21.7045C204.94 22.9702 203.597 23.1364 200.184 23.4688C196.298 23.8267 192.808 25.1307 192.808 29.5156C192.808 33.402 195.582 35.3707 199.327 35.3707ZM200.887 31.6122C199.212 31.6122 198.011 30.8324 198.011 29.3366C198.011 27.8026 199.276 27.0483 201.194 26.7798C202.383 26.6136 204.326 26.3324 204.978 25.8977V27.9815C204.978 30.0398 203.278 31.6122 200.887 31.6122ZM214.611 35H220.057V23.8906C220.057 21.4744 221.821 19.8125 224.224 19.8125C224.979 19.8125 226.014 19.9403 226.526 20.1065V15.2741C226.04 15.1591 225.362 15.0824 224.812 15.0824C222.614 15.0824 220.811 16.3608 220.095 18.7898H219.891V15.3636H214.611V35ZM237.376 35.3835C242.234 35.3835 245.507 33.0185 246.274 29.375L241.237 29.0426C240.687 30.5384 239.281 31.3182 237.466 31.3182C234.743 31.3182 233.017 29.5156 233.017 26.5881V26.5753H246.389V25.0795C246.389 18.4062 242.349 15.108 237.159 15.108C231.38 15.108 227.635 19.2116 227.635 25.2713C227.635 31.4972 231.329 35.3835 237.376 35.3835ZM233.017 23.2003C233.132 20.9631 234.832 19.1733 237.248 19.1733C239.613 19.1733 241.25 20.8608 241.262 23.2003H233.017Z" fill="white"/>
<path d="M36.001 35.0067L35.4781 35.9824L33.865 38.9951L33.3263 40.0003H15.2617L17.4141 35.9824L20.0876 30.9905L22.2399 26.972L24.8327 22.1314L26.9687 18.1436L29.1046 22.1314L26.9687 26.1192L26.5119 26.972L24.359 30.9905L21.6855 35.9824H24.0445L26.718 30.9905L28.1476 28.3209L28.8703 26.972L30.2836 24.3331L31.6974 26.972L32.4195 28.3209L30.9893 30.9905L30.2836 32.3088L28.3158 35.9824H31.2062L31.7284 35.0067L33.865 31.0188L36.001 35.0067Z" fill="white"/>
<path d="M25.8262 15.9347L23.6718 19.9343L20.9478 24.9903L18.8042 20.9703L21.5168 15.9353L19.396 11.9992L11.3503 26.9327L9.17877 30.9632L6.48091 35.9698H10.7225L13.1675 31.4319H17.4769L15.0319 35.9698L12.861 39.9996H0L2.17151 35.9698L4.8688 30.9632L7.04031 26.9327L17.241 7.99962L19.396 4L21.551 8.00023L23.6718 11.9351L25.8262 15.9347Z" fill="white"/>
</svg>
